<?xml version="1.0" encoding="UTF-8" standalone="no"?>
<!-- Created with Inkscape (http://www.inkscape.org/) -->

<svg
   version="1.1"
   id="svg2"
   width="4000"
   height="4000"
   viewBox="0 0 4000 4000"
   sodipodi:docname="iStock-1400219675.eps"
   xmlns:inkscape="http://www.inkscape.org/namespaces/inkscape"
   xmlns:sodipodi="http://sodipodi.sourceforge.net/DTD/sodipodi-0.dtd"
   xmlns="http://www.w3.org/2000/svg"
   xmlns:svg="http://www.w3.org/2000/svg">
  <defs
     id="defs6" />
  <sodipodi:namedview
     id="namedview4"
     pagecolor="#ffffff"
     bordercolor="#000000"
     borderopacity="0.25"
     inkscape:showpageshadow="2"
     inkscape:pageopacity="0.0"
     inkscape:pagecheckerboard="0"
     inkscape:deskcolor="#d1d1d1" />
  <g
     id="g8"
     inkscape:groupmode="layer"
     inkscape:label="ink_ext_XXXXXX"
     transform="matrix(1.3333333,0,0,-1.3333333,0,4000)">
    <g
       id="g10"
       transform="scale(0.1)">
      <path
         d="M 30000,0 H 0 V 30000 H 30000 V 0"
         style="fill:#ffffff;fill-opacity:1;fill-rule:nonzero;stroke:none"
         id="path12" />
      <path
         d="m 14990,14384.5 c 1.7,0 3.3,0.1 5,0.1 1.7,0 3.3,-0.1 5,-0.1 2201.6,0 3986.4,1784.8 3986.4,3986.4 0,2201.6 -1784.8,3986.4 -3986.4,3986.4 -1.7,0 -3.3,0 -5,0 -1.7,0 -3.3,0 -5,0 -2201.6,0 -3986.4,-1784.8 -3986.4,-3986.4 0,-2201.6 1784.8,-3986.4 3986.4,-3986.4"
         style="fill:#231f20;fill-opacity:1;fill-rule:nonzero;stroke:none"
         id="path14" />
      <path
         d="m 23015.2,8516.3 c 323.1,399.2 347.9,962.8 59.2,1387.5 -623.1,916.6 -1451.9,1698.1 -2444.4,2271.1 v 0 c -1895.5,1092.8 -3757.4,1607.3 -5635,1585.8 -1877.6,21.5 -3739.5,-493 -5634.99,-1585.8 H 9360 C 8367.54,11601.9 7538.7,10820.4 6915.63,9903.8 6626.86,9479.1 6651.68,8915.5 6974.85,8516.3 8866.7,6179 11756.5,4681.2 14990,4678.1 v 0 0 c 1.7,0 3.3,0 5,0 1.7,0 3.3,0 5,0 v 0 0 c 3233.5,3.1 6123.3,1500.9 8015.2,3838.2"
         style="fill:#231f20;fill-opacity:1;fill-rule:nonzero;stroke:none"
         id="path16" />
      <path
         d="m 3677.81,15000 c 0,6244.2 5078.65,11324.4 11322.19,11327.2 6243.5,-2.8 11322.2,-5083 11322.2,-11327.2 C 26322.2,8755.8 21243.5,3675.6 15000,3672.8 8756.46,3675.6 3677.81,8755.8 3677.81,15000 Z m 22844.59,4865.7 c -629.6,1488.6 -1530.8,2825.4 -2678.6,3973.1 -1147.7,1147.8 -2484.5,2049.1 -3973.1,2678.6 -1541.4,652 -3178.5,982.6 -4865.7,982.6 -1.7,0 -3.3,0 -5,0 -1.7,0 -3.3,0 -5,0 -1687.2,0 -3324.3,-330.6 -4865.7,-982.6 C 8640.7,25887.9 7303.95,24986.6 6156.16,23838.8 5008.39,22691.1 4107.17,21354.3 3477.55,19865.7 2825.57,18324.3 2495,16687.2 2495,15000 c 0,-1687.2 330.57,-3324.3 982.55,-4865.7 C 4107.17,8645.7 5008.39,7309 6156.16,6161.2 7303.95,5013.4 8640.7,4112.2 10129.3,3482.6 11670.7,2830.6 13307.8,2500 14995,2500 c 1.7,0 3.3,0 5,0 1.7,0 3.3,0 5,0 1687.2,0 3324.3,330.6 4865.7,982.6 1488.6,629.6 2825.4,1530.8 3973.1,2678.6 1147.8,1147.8 2049,2484.5 2678.6,3973.1 652,1541.4 982.6,3178.5 982.6,4865.7 0,1687.2 -330.6,3324.3 -982.6,4865.7"
         style="fill:#231f20;fill-opacity:1;fill-rule:nonzero;stroke:none"
         id="path18" />
    </g>
  </g>
</svg>
